{
  "accessors": [
    {
      "bufferView": 2,
      "componentType": 5126,
      "count": 3794,
      "max": [
        1.300773024559021,
        7.725496292114258,
        0.3489941954612732
      ],
      "min": [
        -1.1847769021987915,
        -7.5287556648254395,
        -0.25925588607788086
      ],
      "type": "VEC3"
    },
    {
      "bufferView": 2,
      "byteOffset": 45528,
      "componentType": 5126,
      "count": 3794,
      "max": [
        0.9999148845672607,
        0.9999012351036072,
        0.9999950528144836
      ],
      "min": [
        -0.9999148845672607,
        -0.99262535572052,
        -1.0
      ],
      "type": "VEC3"
    },
    {
      "bufferView": 1,
      "componentType": 5126,
      "count": 3794,
      "max": [
        4.106988430023193,
        15.04671859741211
      ],
      "min": [
        0.0,
        0.0
      ],
      "type": "VEC2"
    },
    {
      "bufferView": 0,
      "componentType": 5125,
      "count": 22752,
      "type": "SCALAR"
    }
  ],
  "asset": {
    "extras": {
      "author": "shaiksha2108 (https://sketchfab.com/shasha2108)",
      "license": "CC-BY-4.0 (http://creativecommons.org/licenses/by/4.0/)",
      "source": "https://sketchfab.com/3d-models/fork-629550ccf566447389a2c5fc00af0408",
      "title": "Fork"
    },
    "generator": "Sketchfab-12.65.0",
    "version": "2.0"
  },
  "bufferViews": [
    {
      "buffer": 0,
      "byteLength": 91008,
      "name": "floatBufferViews",
      "target": 34963
    },
    {
      "buffer": 0,
      "byteLength": 30352,
      "byteOffset": 91008,
      "byteStride": 8,
      "name": "floatBufferViews",
      "target": 34962
    },
    {
      "buffer": 0,
      "byteLength": 91056,
      "byteOffset": 121360,
      "byteStride": 12,
      "name": "floatBufferViews",
      "target": 34962
    }
  ],
  "buffers": [
    {
      "byteLength": 212416,
      "uri": "scene.bin"
    }
  ],
  "materials": [
    {
      "doubleSided": true,
      "name": "Scene_-_Root",
      "pbrMetallicRoughness": {
        "baseColorFactor": [
          0.8103699510436352,
          0.7782844972596933,
          0.7782844972596933,
          1.0
        ],
        "metallicFactor": 0.8248856707317073,
        "roughnessFactor": 0.23342225609756098
      }
    }
  ],
  "meshes": [
    {
      "name": "fork__0",
      "primitives": [
        {
          "attributes": {
            "NORMAL": 1,
            "POSITION": 0,
            "TEXCOORD_0": 2
          },
          "indices": 3,
          "material": 0,
          "mode": 4
        }
      ]
    }
  ],
  "nodes": [
    {
      "children": [
        1
      ],
      "matrix": [
        1.0,
        0.0,
        0.0,
        0.0,
        0.0,
        2.220446049250313e-16,
        -1.0,
        0.0,
        0.0,
        1.0,
        2.220446049250313e-16,
        0.0,
        0.0,
        0.0,
        0.0,
        1.0
      ],
      "name": "Sketchfab_model"
    },
    {
      "children": [
        2
      ],
      "matrix": [
        1.0,
        0.0,
        0.0,
        0.0,
        0.0,
        0.0,
        1.0,
        0.0,
        0.0,
        -1.0,
        0.0,
        0.0,
        0.0,
        0.0,
        0.0,
        1.0
      ],
      "name": "b9864da21d1945d3befb05ee7c76bf10.fbx"
    },
    {
      "children": [
        3
      ],
      "name": "RootNode"
    },
    {
      "children": [
        4
      ],
      "matrix": [
        1.0,
        0.0,
        0.0,
        0.0,
        0.0,
        0.9999999999999867,
        1.6292068494294582e-07,
        0.0,
        0.0,
        -1.6292068494294582e-07,
        0.9999999999999867,
        0.0,
        -0.07983916997909546,
        -0.05364036560058594,
        -2.344694882694398e-09,
        1.0
      ],
      "name": "fork"
    },
    {
      "mesh": 0,
      "name": "fork__0"
    }
  ],
  "scene": 0,
  "scenes": [
    {
      "name": "Sketchfab_Scene",
      "nodes": [
        0
      ]
    }
  ]
}
